<svg width="2048" height="2048" viewBox="0 0 2048 2048" xmlns="http://www.w3.org/2000/svg"><title>logo</title><g fill-rule="nonzero" fill="#B86BFF"><path d="M314.733 513.23c-28.878 3.604-52.744 15.303-74.362 36.148-23.574 22.73-44.666 56.682-62.22 101.48C142.303 742.344 124 871.823 124 1024s18.303 281.657 54.151 373.141c17.554 44.799 38.646 78.751 62.22 101.481 21.618 20.845 45.484 32.544 74.362 36.148C510.443 1559.192 704.515 1568 1024 1568c321.136 0 519.282-8.94 708.967-33.193 27.566-3.524 50.844-15.116 72.317-35.957 23.65-22.953 44.998-57.201 62.869-102.161C1904.858 1304.342 1924 1174.109 1924 1024c0-150.11-19.142-280.342-55.847-372.689-17.87-44.96-39.22-79.208-62.869-102.16-21.473-20.842-44.75-32.434-72.317-35.958C1540.084 488.53 1354.04 480 1024 480c-328.102 0-510.287 8.4-709.267 33.23zM302.351 414C510.7 388 700 380 1024 380s518.299 8 721.65 34C1949 440 2024 719 2024 1024s-75 584-278.35 610c-203.351 26-412.61 34-721.65 34-309.516 0-513.299-8-721.65-34C94 1608 24 1329 24 1024s70-584 278.35-610z"/><path d="M1365.425 774.618c-78.15-78.157-204.75-78.157-282.85 0l-58.6 58.556-58.55-58.556c-78.15-78.157-204.75-78.157-282.85 0-78.1 78.107-78.1 204.77 0 282.827l341.4 341.482 341.45-341.482c78.1-78.058 78.1-204.77 0-282.827z"/></g></svg>